<svg xmlns="http://www.w3.org/2000/svg" xmlns:xlink="http://www.w3.org/1999/xlink" viewBox="0,0,256,256" width="48px" height="48px"><g fill="none" fill-rule="nonzero" stroke="none" stroke-width="1" stroke-linecap="butt" stroke-linejoin="miter" stroke-miterlimit="10" stroke-dasharray="" stroke-dashoffset="0" font-family="none" font-weight="none" font-size="none" text-anchor="none" style="mix-blend-mode: normal"><g transform="scale(5.33333,5.33333)"><path d="M41,42h-34l5,-5h24z" fill="#388e3c"></path><path d="M19,32.875h10v5h-10z" fill="#388e3c"></path><path d="M42,33c0,1.104 -0.896,2 -2,2h-32c-1.104,0 -2,-0.896 -2,-2v-25c0,-1.104 0.896,-2 2,-2h32c1.104,0 2,0.896 2,2z" fill="#4caf50"></path><path d="M9,9h30v22.875h-30z" fill="#1b5e20"></path><g fill="#66bb6a"><path transform="translate(17.29014,-6.96233) rotate(44.992)" d="M15.551,11.893h3v11h-3z"></path><path transform="translate(-11.30612,18.81406) rotate(-45.017)" d="M15.55,17.55h3v11h-3z"></path><path transform="translate(65.30421,7.73544) rotate(134.999)" d="M29.55,11.893h3v11h-3z"></path><path transform="translate(36.69721,61.30686) rotate(-134.983)" d="M29.55,17.55h3v11h-3z"></path></g></g></g></svg>